<svg width="560" height="170" viewBox="0 0 560 170" xmlns="http://www.w3.org/2000/svg" role="img" aria-label="Faresay">
  <g transform="translate(10,12) scale(0.72)" fill="#ffffff">
    <path transform="rotate(-58 100 150)" d="M100 150 C76 132 70 86 100 40 C130 86 124 132 100 150 Z"/>
    <path transform="rotate(58 100 150)"  d="M100 150 C76 132 70 86 100 40 C130 86 124 132 100 150 Z"/>
    <path transform="rotate(-34 100 150)" d="M100 150 C76 132 70 86 100 40 C130 86 124 132 100 150 Z"/>
    <path transform="rotate(34 100 150)"  d="M100 150 C76 132 70 86 100 40 C130 86 124 132 100 150 Z"/>
    <path transform="rotate(-20 100 150)" d="M100 150 C80 134 76 96 100 56 C124 96 120 134 100 150 Z"/>
    <path transform="rotate(20 100 150)"  d="M100 150 C80 134 76 96 100 56 C124 96 120 134 100 150 Z"/>
    <path transform="rotate(-8 100 150)" d="M100 150 C86 138 84 108 100 74 C116 108 114 138 100 150 Z"/>
    <path transform="rotate(8 100 150)"  d="M100 150 C86 138 84 108 100 74 C116 108 114 138 100 150 Z"/>
    <path d="M100 150 C88 138 88 112 100 82 C112 112 112 138 100 150 Z"/>
  </g>
  <text x="180" y="103" font-family="Fraunces, Georgia, serif" font-size="76" font-weight="600" letter-spacing="-1" fill="#ffffff">faresay</text>
</svg>
