<svg width="560" height="170" viewBox="0 0 560 170" xmlns="http://www.w3.org/2000/svg" role="img" aria-label="Faresay">
  <defs>
    <mask id="cutB" maskUnits="userSpaceOnUse">
      <rect x="0" y="0" width="200" height="200" fill="#fff"/>
      <path d="M72 96 C84 118 116 118 128 96" fill="none" stroke="#000" stroke-width="10" stroke-linecap="round"/>
      <path d="M84 74 C92 66 108 66 116 74" fill="none" stroke="#000" stroke-width="7.5" stroke-linecap="round"/>
    </mask>
  </defs>
  <g transform="translate(2,4) scale(0.8)">
    <path fill="#16161a" mask="url(#cutB)" d="M70 26 h60 a44 44 0 0 1 44 44 v36 a44 44 0 0 1 -44 44 h-30
      l-26 24 a4 4 0 0 1 -6.6 -3.2 l1.6 -20.8 h0 a44 44 0 0 1 -39 -44 v-36 a44 44 0 0 1 44 -44 Z"/>
  </g>
  <text x="178" y="103" font-family="Fraunces, Georgia, serif" font-size="76" font-weight="600" letter-spacing="-1" fill="#16161a">faresay</text>
</svg>
