<svg width="480" height="480" viewBox="0 0 480 480" xmlns="http://www.w3.org/2000/svg" role="img" aria-label="Faresay petal pattern">
  <defs>
    <pattern id="petals" width="160" height="160" patternUnits="userSpaceOnUse" patternTransform="rotate(8)">
      <rect width="160" height="160" fill="#f0faf7"/>
      <g fill="none" stroke="#7fcab8" stroke-width="2.4" stroke-opacity="0.5" stroke-linecap="round">
        <path d="M80 118 C64 104 60 76 80 44 C100 76 96 104 80 118 Z"/>
        <path d="M0 38 C-12 28 -14 8 0 -16 C14 8 12 28 0 38 Z"/>
        <path d="M160 38 C148 28 146 8 160 -16 C174 8 172 28 160 38 Z"/>
        <path d="M0 198 C-12 188 -14 168 0 144 C14 168 12 188 0 198 Z"/>
        <path d="M160 198 C148 188 146 168 160 144 C174 168 172 188 160 198 Z"/>
      </g>
      <circle cx="80" cy="118" r="3" fill="#7fcab8" fill-opacity="0.45"/>
    </pattern>
  </defs>
  <rect width="480" height="480" fill="url(#petals)"/>
</svg>
